<?xml version="1.0" encoding="UTF-8"?>
<svg xmlns="http://www.w3.org/2000/svg" width="900" height="1125" viewBox="0 0 900 1125" role="img" aria-label="礼盒装睡袍限定款 细节材质 睡袍">
  <metadata>{&quot;productId&quot;:&quot;p2_sleepwear_robes_10&quot;,&quot;sku&quot;:&quot;LQ-SLEE-ROBE-10&quot;,&quot;name&quot;:&quot;礼盒装睡袍限定款&quot;,&quot;category&quot;:&quot;睡衣家居&quot;,&quot;subCategory&quot;:&quot;睡袍&quot;,&quot;mode&quot;:&quot;detail&quot;}</metadata>
  
  <defs>
    <radialGradient id="bg-p2-sleepwear-robes-10-detail" cx="35%" cy="18%" r="82%">
      <stop offset="0%" stop-color="#8b5cff" stop-opacity=".42"/>
      <stop offset="42%" stop-color="#1f174a" stop-opacity=".92"/>
      <stop offset="100%" stop-color="#090012"/>
    </radialGradient>
    <linearGradient id="gold-p2-sleepwear-robes-10-detail" x1="0%" x2="100%">
      <stop offset="0%" stop-color="#ffe2a8"/>
      <stop offset="46%" stop-color="#d8b76f"/>
      <stop offset="100%" stop-color="#a56f30"/>
    </linearGradient>
    <linearGradient id="glass-p2-sleepwear-robes-10-detail" x1="0%" y1="0%" x2="100%" y2="100%">
      <stop offset="0%" stop-color="#fff7ff" stop-opacity=".34"/>
      <stop offset="46%" stop-color="#8b5cff" stop-opacity=".18"/>
      <stop offset="100%" stop-color="#090012" stop-opacity=".18"/>
    </linearGradient>
    <filter id="glow-p2-sleepwear-robes-10-detail" x="-50%" y="-50%" width="200%" height="200%">
      <feGaussianBlur stdDeviation="9" result="blur"/>
      <feColorMatrix in="blur" type="matrix" values="1 0 0 0 0.65 0 1 0 0 0.12 0 0 1 0 1 0 0 0 .75 0"/>
      <feMerge><feMergeNode/><feMergeNode in="SourceGraphic"/></feMerge>
    </filter>
    <pattern id="velvet-p2-sleepwear-robes-10-detail" width="80" height="80" patternUnits="userSpaceOnUse">
      <path d="M0 50 C18 16 42 88 80 34" fill="none" stroke="#fff" stroke-opacity=".035" stroke-width="10"/>
      <path d="M0 18 C24 58 56 -10 80 44" fill="none" stroke="#8b5cff" stroke-opacity=".055" stroke-width="4"/>
    </pattern>
  </defs>
  
  <rect width="900" height="1125" fill="url(#bg-p2-sleepwear-robes-10-detail)"/>
  <rect width="900" height="1125" fill="url(#velvet-p2-sleepwear-robes-10-detail)" opacity=".95"/>
  <circle cx="745" cy="170" r="210" fill="#8b5cff" opacity=".11"/>
  <circle cx="140" cy="860" r="260" fill="#ff4fd8" opacity=".09"/>
  <path d="M-40 970 C210 760 472 1125 940 846 L940 1125 L-40 1125Z" fill="#000" opacity=".34"/>
  <rect x="74" y="76" width="752" height="958" rx="58" fill="#000" opacity=".18" stroke="#fff" stroke-opacity=".08"/>
  
  <rect x="170" y="350" width="560" height="350" rx="28" fill="#07020c" stroke="url(#gold-p2-sleepwear-robes-10-detail)" stroke-width="4"/>
  <rect x="188" y="368" width="524" height="314" rx="22" fill="url(#glass-p2-sleepwear-robes-10-detail)" opacity=".42"/>
  <path d="M450 370 L450 680" stroke="#d8b76f" stroke-opacity=".42" stroke-width="8"/>
  <path d="M190 518 L710 518" stroke="#d8b76f" stroke-opacity=".36" stroke-width="8"/>
  <path d="M270 350 C310 250 410 250 450 350 C490 250 590 250 630 350" fill="none" stroke="#8b5cff" stroke-width="10" opacity=".55"/>
  <rect x="92" y="900" width="716" height="110" rx="34" fill="#050008" opacity=".42" stroke="#fff" stroke-opacity=".08"/>
  <text x="124" y="948" fill="#fff7ff" font-family="PingFang SC, Microsoft YaHei, Arial, sans-serif" font-size="30" font-weight="800">睡袍细节</text>
  <text x="124" y="988" fill="#d8b76f" font-family="PingFang SC, Microsoft YaHei, Arial, sans-serif" font-size="19">睡袍 · 睡衣家居 · 材质角度</text>
</svg>