<?xml version="1.0" encoding="UTF-8"?>
<svg xmlns="http://www.w3.org/2000/svg" width="900" height="1125" viewBox="0 0 900 1125" role="img" aria-label="午夜睡前舒缓基础款 细节材质 睡前舒缓">
  <metadata>{&quot;productId&quot;:&quot;p2_wellness_sleep_relax_01&quot;,&quot;sku&quot;:&quot;LQ-WELL-SLEE-01&quot;,&quot;name&quot;:&quot;午夜睡前舒缓基础款&quot;,&quot;category&quot;:&quot;放松按摩&quot;,&quot;subCategory&quot;:&quot;睡前舒缓&quot;,&quot;mode&quot;:&quot;detail&quot;}</metadata>
  
  <defs>
    <radialGradient id="bg-p2-wellness-sleep-relax-01-detail" cx="35%" cy="18%" r="82%">
      <stop offset="0%" stop-color="#b66cff" stop-opacity=".42"/>
      <stop offset="42%" stop-color="#24105a" stop-opacity=".92"/>
      <stop offset="100%" stop-color="#090012"/>
    </radialGradient>
    <linearGradient id="gold-p2-wellness-sleep-relax-01-detail" x1="0%" x2="100%">
      <stop offset="0%" stop-color="#ffe2a8"/>
      <stop offset="46%" stop-color="#d8b76f"/>
      <stop offset="100%" stop-color="#a56f30"/>
    </linearGradient>
    <linearGradient id="glass-p2-wellness-sleep-relax-01-detail" x1="0%" y1="0%" x2="100%" y2="100%">
      <stop offset="0%" stop-color="#fff7ff" stop-opacity=".34"/>
      <stop offset="46%" stop-color="#b66cff" stop-opacity=".18"/>
      <stop offset="100%" stop-color="#090012" stop-opacity=".18"/>
    </linearGradient>
    <filter id="glow-p2-wellness-sleep-relax-01-detail" x="-50%" y="-50%" width="200%" height="200%">
      <feGaussianBlur stdDeviation="9" result="blur"/>
      <feColorMatrix in="blur" type="matrix" values="1 0 0 0 0.65 0 1 0 0 0.12 0 0 1 0 1 0 0 0 .75 0"/>
      <feMerge><feMergeNode/><feMergeNode in="SourceGraphic"/></feMerge>
    </filter>
    <pattern id="velvet-p2-wellness-sleep-relax-01-detail" width="80" height="80" patternUnits="userSpaceOnUse">
      <path d="M0 50 C18 16 42 88 80 34" fill="none" stroke="#fff" stroke-opacity=".035" stroke-width="10"/>
      <path d="M0 18 C24 58 56 -10 80 44" fill="none" stroke="#b66cff" stroke-opacity=".055" stroke-width="4"/>
    </pattern>
  </defs>
  
  <rect width="900" height="1125" fill="url(#bg-p2-wellness-sleep-relax-01-detail)"/>
  <rect width="900" height="1125" fill="url(#velvet-p2-wellness-sleep-relax-01-detail)" opacity=".95"/>
  <circle cx="745" cy="170" r="210" fill="#b66cff" opacity=".11"/>
  <circle cx="140" cy="860" r="260" fill="#00e5ff" opacity=".09"/>
  <path d="M-40 970 C210 760 472 1125 940 846 L940 1125 L-40 1125Z" fill="#000" opacity=".34"/>
  <rect x="74" y="76" width="752" height="958" rx="58" fill="#000" opacity=".18" stroke="#fff" stroke-opacity=".08"/>
  
    <rect x="155" y="262" width="590" height="560" rx="50" fill="#07020c" stroke="url(#gold-p2-wellness-sleep-relax-01-detail)" stroke-opacity=".46" stroke-width="4"/>
    <path d="M190 625 C300 500 410 760 520 570 C616 408 692 640 735 492" fill="none" stroke="#b66cff" stroke-width="13" opacity=".5"/>
    <g opacity=".72"><circle cx="240" cy="376" r="23" fill="none" stroke="#00e5ff" stroke-width="5" opacity=".45"/><circle cx="294" cy="418" r="23" fill="none" stroke="#00e5ff" stroke-width="5" opacity=".45"/><circle cx="348" cy="376" r="23" fill="none" stroke="#00e5ff" stroke-width="5" opacity=".45"/><circle cx="402" cy="418" r="23" fill="none" stroke="#00e5ff" stroke-width="5" opacity=".45"/><circle cx="456" cy="376" r="23" fill="none" stroke="#00e5ff" stroke-width="5" opacity=".45"/><circle cx="510" cy="418" r="23" fill="none" stroke="#00e5ff" stroke-width="5" opacity=".45"/><circle cx="564" cy="376" r="23" fill="none" stroke="#00e5ff" stroke-width="5" opacity=".45"/><circle cx="618" cy="418" r="23" fill="none" stroke="#00e5ff" stroke-width="5" opacity=".45"/><circle cx="672" cy="376" r="23" fill="none" stroke="#00e5ff" stroke-width="5" opacity=".45"/></g>
    <path d="M232 708 C370 612 510 610 682 720" fill="none" stroke="url(#gold-p2-wellness-sleep-relax-01-detail)" stroke-width="16" opacity=".62"/>
  <rect x="92" y="900" width="716" height="110" rx="34" fill="#050008" opacity=".42" stroke="#fff" stroke-opacity=".08"/>
  <text x="124" y="948" fill="#fff7ff" font-family="PingFang SC, Microsoft YaHei, Arial, sans-serif" font-size="30" font-weight="800">睡前舒缓细节</text>
  <text x="124" y="988" fill="#d8b76f" font-family="PingFang SC, Microsoft YaHei, Arial, sans-serif" font-size="19">睡前舒缓 · 放松按摩 · 材质角度</text>
</svg>